<svg width="25" height="19" viewBox="0 0 25 19" fill="none" xmlns="http://www.w3.org/2000/svg">
<g clip-path="url(#clip0_159_261)">
<rect x="0.833496" y="0.833374" width="24" height="18" fill="#012169"/>
<path d="M9.8335 13.8334L0.833496 18.3334V13.8334L3.8335 12.3334H0.833496V7.33337H3.8335L0.833496 5.83337V1.33337L9.8335 5.83337V0.833374H15.8335V5.83337L24.8335 1.33337V5.83337L21.8335 7.33337H24.8335V12.3334H21.8335L24.8335 13.3334V18.3334L15.8335 13.8334V18.8334H9.8335V13.8334Z" fill="white"/>
<path d="M18.8335 7.33337L24.8335 4.83337V2.83337L15.8335 7.33337H18.8335Z" fill="#C8102E"/>
<path d="M6.8335 7.33337L0.833496 4.83337V2.83337L9.8335 7.33337H6.8335Z" fill="#C8102E"/>
<path d="M6.8335 12.3334L0.833496 14.8334V16.8334L9.8335 12.3334H6.8335Z" fill="#C8102E"/>
<path d="M18.8335 12.3334L24.8335 14.8334V16.8334L15.8335 12.3334H18.8335Z" fill="#C8102E"/>
<rect x="11.0835" y="0.833374" width="3.5" height="18" fill="#C8102E"/>
<rect x="0.833496" y="8.33337" width="24" height="3" fill="#C8102E"/>
</g>
<defs>
<clipPath id="clip0_159_261">
<rect width="24" height="18" fill="white" transform="translate(0.833496 0.833374)"/>
</clipPath>
</defs>
</svg>
