<svg width="21" height="21" viewBox="0 0 21 21" fill="none" xmlns="http://www.w3.org/2000/svg">
<g clip-path="url(#clip0_159_278)">
<path fill-rule="evenodd" clip-rule="evenodd" d="M10.75 0.761963C5.225 0.761963 0.75 5.35015 0.75 11.0149C0.75 15.5518 3.6125 19.3839 7.5875 20.7424C8.0875 20.8321 8.275 20.5245 8.275 20.2554C8.275 20.0119 8.2625 19.2044 8.2625 18.3458C5.75 18.82 5.1 17.7178 4.9 17.141C4.7875 16.8463 4.3 15.9363 3.875 15.6928C3.525 15.5006 3.025 15.0264 3.8625 15.0135C4.65 15.0007 5.2125 15.7569 5.4 16.0645C6.3 17.6152 7.7375 17.1795 8.3125 16.9103C8.4 16.2439 8.6625 15.7953 8.95 15.539C6.725 15.2827 4.4 14.3984 4.4 10.4766C4.4 9.36162 4.7875 8.43885 5.425 7.72115C5.325 7.46482 4.975 6.4139 5.525 5.00412C5.525 5.00412 6.3625 4.73498 8.275 6.05504C9.075 5.82435 9.925 5.70901 10.775 5.70901C11.625 5.70901 12.475 5.82435 13.275 6.05504C15.1875 4.72216 16.025 5.00412 16.025 5.00412C16.575 6.4139 16.225 7.46482 16.125 7.72115C16.7625 8.43885 17.15 9.3488 17.15 10.4766C17.15 14.4112 14.8125 15.2827 12.5875 15.539C12.95 15.8594 13.2625 16.4746 13.2625 17.4358C13.2625 18.8071 13.25 19.9093 13.25 20.2554C13.25 20.5245 13.4375 20.8449 13.9375 20.7424C17.8875 19.3839 20.75 15.539 20.75 11.0149C20.75 5.35015 16.275 0.761963 10.75 0.761963Z" fill="#9A9A9A"/>
</g>
<defs>
<clipPath id="clip0_159_278">
<rect width="20" height="20" fill="white" transform="translate(0.5 0.833374)"/>
</clipPath>
</defs>
</svg>
