<svg width="21" height="21" viewBox="0 0 21 21" fill="none" xmlns="http://www.w3.org/2000/svg">
<g clip-path="url(#clip0_159_275)">
<path d="M0.75 20.762L2.18611 15.4312C1.02792 13.3546 0.659956 10.9314 1.14973 8.6062C1.63951 6.28103 2.95417 4.20987 4.85249 2.77278C6.7508 1.3357 9.10543 0.629084 11.4843 0.782608C13.8632 0.936131 16.1067 1.93949 17.8032 3.60858C19.4997 5.27766 20.5354 7.5005 20.7202 9.86921C20.905 12.2379 20.2265 14.5936 18.8093 16.504C17.3921 18.4144 15.3311 19.7514 13.0047 20.2695C10.6782 20.7877 8.2423 20.4524 6.14391 19.325L0.75 20.762ZM6.40399 17.3302L6.73758 17.5274C8.25749 18.4253 10.0327 18.7969 11.7866 18.5842C13.5405 18.3715 15.1746 17.5866 16.4342 16.3517C17.6937 15.1168 18.5081 13.5014 18.7502 11.7571C18.9924 10.0128 18.6488 8.23761 17.7731 6.70824C16.8973 5.17886 15.5385 3.98118 13.9084 3.30183C12.2784 2.62248 10.4686 2.49963 8.76116 2.95241C7.05373 3.40519 5.54454 4.40818 4.46877 5.80507C3.393 7.20197 2.81108 8.91429 2.81371 10.6752C2.81228 12.1353 3.21744 13.5671 3.98408 14.8113L4.19328 15.1551L3.39041 18.1304L6.40399 17.3302Z" fill="#00D95F"/>
<path fill-rule="evenodd" clip-rule="evenodd" d="M14.5003 12.044C14.3048 11.8868 14.0758 11.7762 13.8309 11.7205C13.5859 11.6648 13.3314 11.6656 13.0868 11.7228C12.7193 11.875 12.4819 12.4497 12.2444 12.7371C12.1943 12.806 12.1207 12.8543 12.0375 12.873C11.9542 12.8917 11.8669 12.8794 11.7921 12.8386C10.4466 12.3133 9.31884 11.3502 8.59193 10.1056C8.52993 10.0279 8.50058 9.92927 8.51007 9.83047C8.51957 9.73167 8.56715 9.6404 8.64281 9.57586C8.90767 9.31454 9.10213 8.99088 9.20821 8.63481C9.23177 8.24205 9.14148 7.85083 8.94813 7.5078C8.79865 7.02688 8.51417 6.59865 8.1283 6.27372C7.92928 6.18451 7.70861 6.1546 7.49291 6.18759C7.27722 6.22059 7.0757 6.31508 6.91269 6.45968C6.62969 6.70302 6.40506 7.00654 6.25535 7.34787C6.10564 7.6892 6.03466 8.05965 6.04763 8.43195C6.0485 8.64101 6.07509 8.84918 6.12679 9.0518C6.25808 9.53862 6.45998 10.0037 6.72611 10.4324C6.91812 10.7608 7.12761 11.0787 7.3537 11.3847C8.08846 12.39 9.01208 13.2435 10.0733 13.8979C10.6058 14.2305 11.1749 14.5009 11.7695 14.7038C12.3871 14.9828 13.069 15.0899 13.7427 15.0137C14.1266 14.9558 14.4903 14.8047 14.8019 14.5738C15.1134 14.3429 15.3632 14.0392 15.5294 13.6895C15.627 13.4782 15.6566 13.242 15.6142 13.0132C15.5124 12.5455 14.8848 12.2694 14.5003 12.044Z" fill="#00D95F"/>
</g>
<defs>
<clipPath id="clip0_159_275">
<rect width="20" height="20" fill="white" transform="translate(0.5 0.833374)"/>
</clipPath>
</defs>
</svg>
