<svg width="70" height="40" viewBox="0 0 70 40" fill="none" xmlns="http://www.w3.org/2000/svg">
<g clip-path="url(#clip0_145_63)">
<path d="M22.9468 33.9473L8.70206 20L22.9468 6.05275C24.3712 4.65803 24.3712 2.44077 22.9468 1.04604C22.6125 0.7147 22.2144 0.451627 21.7755 0.272075C21.3366 0.0925227 20.8657 6.63991e-05 20.39 6.63991e-05C19.9144 6.63991e-05 19.4434 0.0925227 19.0046 0.272075C18.5657 0.451627 18.1676 0.7147 17.8333 1.04604L1.06835 17.4609C-0.356118 18.8556 -0.356118 21.1086 1.06835 22.5034L17.8333 38.954C19.2578 40.3487 21.5223 40.3487 22.9468 38.954C24.3712 37.5592 24.3712 35.342 22.9468 33.9473ZM47.0532 33.9473L61.2979 20L47.0532 6.05275C46.7148 5.72547 46.4461 5.33567 46.2627 4.90594C46.0794 4.47622 45.9849 4.01512 45.9849 3.5494C45.9849 3.08367 46.0794 2.62258 46.2627 2.19285C46.4461 1.76313 46.7148 1.37333 47.0532 1.04604C48.4777 -0.348681 50.7422 -0.348681 52.1667 1.04604L68.9316 17.4609C70.3561 18.8556 70.3561 21.1086 68.9316 22.5034L52.1667 38.954C50.7422 40.3487 48.4777 40.3487 47.0532 38.954C46.7148 38.6267 46.4461 38.2369 46.2627 37.8072C46.0794 37.3774 45.9849 36.9163 45.9849 36.4506C45.9849 35.9849 46.0794 35.5238 46.2627 35.0941C46.4461 34.6643 46.7148 34.2745 47.0532 33.9473Z" fill="#83FFC3"/>
</g>
<defs>
<clipPath id="clip0_145_63">
<rect width="70" height="40" fill="white"/>
</clipPath>
</defs>
</svg>
