<svg width="50" height="40" viewBox="0 0 50 40" fill="none" xmlns="http://www.w3.org/2000/svg">
<g clip-path="url(#clip0_145_57)">
<path d="M50 2.85714V15.7143C50 17.2857 48.75 18.5714 47.2222 18.5714H20.3611C18.8333 18.5714 17.5833 17.2857 17.5833 15.7143V2.85714C17.5833 1.28571 18.8333 0 20.3611 0H47.2222C48.75 0 50 1.28571 50 2.85714ZM32.4167 37.1429V24.2857C32.4167 22.7143 31.1667 21.4286 29.6389 21.4286H20.3889C18.8611 21.4286 17.6111 22.7143 17.6111 24.2857V37.1429C17.6111 38.7143 18.8611 40 20.3889 40H29.6389C31.1667 40 32.4167 38.7143 32.4167 37.1429ZM35.1944 24.2857V37.1429C35.1944 38.7143 36.4444 40 37.9722 40H47.2222C48.75 40 50 38.7143 50 37.1429V24.2857C50 22.7143 48.75 21.4286 47.2222 21.4286H37.9722C36.4167 21.4286 35.1944 22.7143 35.1944 24.2857ZM14.8056 37.1429V2.85714C14.8056 1.28571 13.5556 0 12.0278 0H2.77778C1.25 0 0 1.28571 0 2.85714V37.1429C0 38.7143 1.25 40 2.77778 40H12.0278C13.5833 40 14.8056 38.7143 14.8056 37.1429Z" fill="#83FFC3"/>
</g>
<defs>
<clipPath id="clip0_145_57">
<rect width="50" height="40" fill="white"/>
</clipPath>
</defs>
</svg>
