<svg width="21" height="21" viewBox="0 0 21 21" fill="none" xmlns="http://www.w3.org/2000/svg">
<g clip-path="url(#clip0_159_281)">
<path d="M18.75 0.761963H2.75C1.65 0.761963 0.76 1.88696 0.76 3.26196L0.75 18.262C0.75 19.637 1.65 20.762 2.75 20.762H18.75C19.85 20.762 20.75 19.637 20.75 18.262V3.26196C20.75 1.88696 19.85 0.761963 18.75 0.761963ZM18.35 6.07446L11.28 11.5995C10.96 11.8495 10.54 11.8495 10.22 11.5995L3.15 6.07446C2.9 5.87446 2.75 5.53696 2.75 5.17446C2.75 4.33696 3.48 3.83696 4.05 4.27446L10.75 9.51196L17.45 4.27446C18.02 3.83696 18.75 4.33696 18.75 5.17446C18.75 5.53696 18.6 5.87446 18.35 6.07446Z" fill="#E9E9E9"/>
</g>
<defs>
<clipPath id="clip0_159_281">
<rect width="20" height="20" fill="white" transform="translate(0.5 0.833374)"/>
</clipPath>
</defs>
</svg>
