<svg width="21" height="21" viewBox="0 0 21 21" fill="none" xmlns="http://www.w3.org/2000/svg">
<g clip-path="url(#clip0_159_272)">
<path fill-rule="evenodd" clip-rule="evenodd" d="M20.75 10.762C20.75 16.2848 16.2728 20.762 10.75 20.762C5.22716 20.762 0.75 16.2848 0.75 10.762C0.75 5.23912 5.22716 0.761963 10.75 0.761963C16.2728 0.761963 20.75 5.23912 20.75 10.762ZM11.7083 7.6935C9.99032 8.43556 5.03683 10.5429 5.03683 10.5429C3.86289 11.0179 4.55004 11.4631 4.55004 11.4631C4.55004 11.4631 5.55219 11.8193 6.41121 12.0864C7.27019 12.3535 7.72832 12.0567 7.72832 12.0567C7.72832 12.0567 9.73263 10.6914 11.7655 9.23694C13.1972 8.22778 12.8536 9.05886 12.51 9.41506C11.7655 10.1868 10.5343 11.4037 9.50354 12.3832C9.04544 12.7988 9.27449 13.1549 9.47493 13.333C10.0579 13.8443 11.4308 14.7742 12.0541 15.1964C12.2268 15.3134 12.342 15.3914 12.3669 15.4107C12.51 15.5295 13.3117 16.0637 13.7985 15.945C14.2852 15.8263 14.3425 15.1436 14.3425 15.1436C14.3425 15.1436 14.7147 12.7097 15.0583 10.4836C15.122 10.0465 15.1856 9.61859 15.245 9.21958C15.3992 8.18246 15.5244 7.3406 15.5451 7.0405C15.631 6.03134 14.6002 6.44686 14.6002 6.44686C14.6002 6.44686 12.3669 7.3967 11.7083 7.6935Z" fill="#34AADF"/>
</g>
<defs>
<clipPath id="clip0_159_272">
<rect width="20" height="20" fill="white" transform="translate(0.5 0.833374)"/>
</clipPath>
</defs>
</svg>
